<svg width="732" height="276" viewBox="0 0 732 276" fill="none" xmlns="http://www.w3.org/2000/svg">
<path d="M252.762 135L253.434 132.312L267.21 95.52L238.314 131.64H185.226L212.274 19.248L230.25 11.856H189.426L200.514 19.08L174.474 127.104L159.186 135H252.762ZM317.059 26.64L320.755 10.176H304.795L301.099 26.64H317.059ZM291.691 137.016C301.267 137.016 309.667 126.6 319.747 95.016C308.491 122.4 300.595 129.792 296.227 129.792C293.707 129.792 292.867 127.44 294.043 122.736L309.331 62.424C311.683 53.016 307.819 48.816 302.443 48.816C292.699 48.816 281.947 62.424 274.723 84.264C283.291 66.792 291.859 56.04 296.395 56.04C298.747 56.04 299.587 57.552 298.243 63.432L283.291 121.728C280.771 131.64 283.963 137.016 291.691 137.016ZM345.466 137.016C358.066 137.016 369.826 124.92 378.058 106.944C369.658 121.728 359.746 130.128 350.842 130.128C343.45 130.128 340.258 124.584 342.442 115.68L356.554 57.216H384.778L386.458 50.496H358.234L363.274 29.16L350.674 34.872L348.154 45.456L330.346 56.208L346.306 58.392L331.018 116.184C327.994 128.28 333.874 137.016 345.466 137.016ZM404.692 137.016C417.292 137.016 429.052 124.92 437.284 106.944C428.884 121.728 418.972 130.128 410.068 130.128C402.676 130.128 399.484 124.584 401.668 115.68L415.78 57.216H444.004L445.684 50.496H417.46L422.5 29.16L409.9 34.872L407.38 45.456L389.572 56.208L405.532 58.392L390.244 116.184C387.22 128.28 393.1 137.016 404.692 137.016ZM446.342 122.568C444.158 131.64 447.014 137.016 454.91 137.016C464.486 137.016 472.886 126.6 482.966 95.016C471.542 122.4 463.814 129.792 459.446 129.792C456.758 129.792 456.254 127.272 457.262 122.568L486.998 0.263992L459.614 11.856L472.718 13.2L446.342 122.568ZM490.38 103.416C490.38 121.392 499.452 136.848 519.948 137.016C535.236 137.184 548.004 125.592 556.404 103.92C548.676 120.216 537.42 128.952 524.652 128.784C508.356 128.784 501.132 115.176 501.132 99.048C501.132 93.672 501.972 88.296 503.316 83.088H556.908L557.076 82.08C560.436 61.92 551.532 48.816 535.236 48.816C509.028 48.816 490.38 76.536 490.38 103.416ZM504.156 80.736C509.028 64.44 520.452 51.336 534.396 51.336C544.476 51.336 550.356 61.92 548.172 74.352C547.332 78.552 544.98 80.736 541.62 80.736H504.156ZM0.341751 187.144V274H14.6218V235.36C14.6218 229.76 15.1818 224.832 16.3018 220.576C17.4218 216.208 19.2138 212.512 21.6778 209.488C24.1418 206.464 27.3898 204.168 31.4218 202.6C35.4538 201.032 40.3258 200.248 46.0378 200.248V185.128C38.3098 184.904 31.9258 186.472 26.8858 189.832C21.8458 193.192 17.5898 198.4 14.1178 205.456H13.7818V187.144H0.341751ZM114.15 222.256H64.2539C64.4779 218.896 65.2059 215.76 66.4379 212.848C67.6699 209.824 69.3499 207.192 71.4779 204.952C73.6059 202.712 76.1259 200.976 79.0379 199.744C82.0619 198.4 85.4219 197.728 89.1179 197.728C92.7019 197.728 95.9499 198.4 98.8619 199.744C101.886 200.976 104.462 202.712 106.59 204.952C108.83 207.08 110.566 209.656 111.798 212.68C113.142 215.704 113.926 218.896 114.15 222.256ZM127.926 246.448H113.814C112.582 252.16 110.006 256.416 106.086 259.216C102.278 262.016 97.3499 263.416 91.3019 263.416C86.5979 263.416 82.5099 262.632 79.0379 261.064C75.5659 259.496 72.7099 257.424 70.4699 254.848C68.2299 252.16 66.6059 249.136 65.5979 245.776C64.5899 242.304 64.1419 238.664 64.2539 234.856H129.27C129.494 229.592 128.99 224.048 127.758 218.224C126.638 212.4 124.51 207.024 121.374 202.096C118.35 197.168 114.262 193.136 109.11 190C104.07 186.752 97.6859 185.128 89.9579 185.128C84.0219 185.128 78.5339 186.248 73.4939 188.488C68.5659 190.728 64.2539 193.864 60.5579 197.896C56.9739 201.928 54.1739 206.688 52.1579 212.176C50.1419 217.664 49.1339 223.712 49.1339 230.32C49.3579 236.928 50.3099 243.032 51.9899 248.632C53.7819 254.232 56.4139 259.048 59.8859 263.08C63.3579 267.112 67.6139 270.248 72.6539 272.488C77.8059 274.728 83.8539 275.848 90.7979 275.848C100.654 275.848 108.83 273.384 115.326 268.456C121.822 263.528 126.022 256.192 127.926 246.448ZM144.072 187.144V274H158.352V219.904C158.352 218.224 158.744 216.152 159.528 213.688C160.424 211.112 161.768 208.648 163.56 206.296C165.464 203.944 167.872 201.928 170.784 200.248C173.808 198.568 177.392 197.728 181.536 197.728C184.784 197.728 187.416 198.232 189.432 199.24C191.56 200.136 193.24 201.48 194.472 203.272C195.704 204.952 196.544 206.968 196.992 209.32C197.552 211.672 197.832 214.248 197.832 217.048V274H212.112V219.904C212.112 213.184 214.128 207.808 218.16 203.776C222.192 199.744 227.736 197.728 234.792 197.728C238.264 197.728 241.064 198.232 243.192 199.24C245.432 200.248 247.168 201.648 248.4 203.44C249.632 205.12 250.472 207.136 250.92 209.488C251.368 211.84 251.592 214.36 251.592 217.048V274H265.872V210.328C265.872 205.848 265.144 202.04 263.688 198.904C262.344 195.656 260.384 193.024 257.808 191.008C255.344 188.992 252.32 187.536 248.736 186.64C245.264 185.632 241.344 185.128 236.976 185.128C231.264 185.128 226 186.416 221.184 188.992C216.48 191.568 212.672 195.208 209.76 199.912C207.968 194.536 204.888 190.728 200.52 188.488C196.152 186.248 191.28 185.128 185.904 185.128C173.696 185.128 164.344 190.056 157.848 199.912H157.512V187.144H144.072ZM302.419 171.52V154.048H288.139V171.52H302.419ZM288.139 187.144V274H302.419V187.144H288.139ZM324.541 187.144V274H338.821V224.944C338.821 221.024 339.325 217.44 340.333 214.192C341.453 210.832 343.077 207.92 345.205 205.456C347.333 202.992 349.965 201.088 353.101 199.744C356.349 198.4 360.157 197.728 364.525 197.728C370.013 197.728 374.325 199.296 377.461 202.432C380.597 205.568 382.165 209.824 382.165 215.2V274H396.445V216.88C396.445 212.176 395.941 207.92 394.933 204.112C394.037 200.192 392.413 196.832 390.061 194.032C387.709 191.232 384.629 189.048 380.821 187.48C377.013 185.912 372.253 185.128 366.541 185.128C353.661 185.128 344.253 190.392 338.317 200.92H337.981V187.144H324.541ZM428.309 231.328C428.309 227.072 428.757 222.928 429.653 218.896C430.549 214.864 432.005 211.28 434.021 208.144C436.037 205.008 438.725 202.488 442.085 200.584C445.445 198.68 449.533 197.728 454.349 197.728C459.277 197.728 463.477 198.68 466.949 200.584C470.421 202.376 473.221 204.784 475.349 207.808C477.589 210.832 479.213 214.36 480.221 218.392C481.229 222.312 481.733 226.4 481.733 230.656C481.733 234.688 481.229 238.664 480.221 242.584C479.325 246.504 477.813 250.032 475.685 253.168C473.557 256.192 470.813 258.656 467.453 260.56C464.093 262.464 460.005 263.416 455.189 263.416C450.597 263.416 446.565 262.52 443.093 260.728C439.733 258.936 436.933 256.528 434.693 253.504C432.565 250.48 430.941 247.064 429.821 243.256C428.813 239.336 428.309 235.36 428.309 231.328ZM495.509 274V154.048H481.229V198.736H480.893C479.325 196.16 477.365 194.032 475.013 192.352C472.773 190.56 470.365 189.16 467.789 188.152C465.213 187.032 462.637 186.248 460.061 185.8C457.485 185.352 455.077 185.128 452.837 185.128C446.229 185.128 440.405 186.36 435.365 188.824C430.437 191.176 426.293 194.424 422.933 198.568C419.685 202.6 417.221 207.36 415.541 212.848C413.973 218.336 413.189 224.16 413.189 230.32C413.189 236.48 414.029 242.304 415.709 247.792C417.389 253.28 419.853 258.096 423.101 262.24C426.461 266.384 430.605 269.688 435.533 272.152C440.573 274.616 446.453 275.848 453.173 275.848C459.221 275.848 464.765 274.784 469.805 272.656C474.845 270.528 478.541 267.056 480.893 262.24H481.229V274H495.509ZM577.791 222.256H527.895C528.119 218.896 528.847 215.76 530.079 212.848C531.311 209.824 532.991 207.192 535.119 204.952C537.247 202.712 539.767 200.976 542.679 199.744C545.703 198.4 549.063 197.728 552.759 197.728C556.343 197.728 559.591 198.4 562.503 199.744C565.527 200.976 568.103 202.712 570.231 204.952C572.471 207.08 574.207 209.656 575.439 212.68C576.783 215.704 577.567 218.896 577.791 222.256ZM591.567 246.448H577.455C576.223 252.16 573.647 256.416 569.727 259.216C565.919 262.016 560.991 263.416 554.943 263.416C550.239 263.416 546.151 262.632 542.679 261.064C539.207 259.496 536.351 257.424 534.111 254.848C531.871 252.16 530.247 249.136 529.239 245.776C528.231 242.304 527.783 238.664 527.895 234.856H592.911C593.135 229.592 592.631 224.048 591.399 218.224C590.279 212.4 588.151 207.024 585.015 202.096C581.991 197.168 577.903 193.136 572.751 190C567.711 186.752 561.327 185.128 553.599 185.128C547.663 185.128 542.175 186.248 537.135 188.488C532.207 190.728 527.895 193.864 524.199 197.896C520.615 201.928 517.815 206.688 515.799 212.176C513.783 217.664 512.775 223.712 512.775 230.32C512.999 236.928 513.951 243.032 515.631 248.632C517.423 254.232 520.055 259.048 523.527 263.08C526.999 267.112 531.255 270.248 536.295 272.488C541.447 274.728 547.495 275.848 554.439 275.848C564.295 275.848 572.471 273.384 578.967 268.456C585.463 263.528 589.663 256.192 591.567 246.448ZM607.209 187.144V274H621.489V235.36C621.489 229.76 622.049 224.832 623.169 220.576C624.289 216.208 626.081 212.512 628.545 209.488C631.009 206.464 634.257 204.168 638.289 202.6C642.321 201.032 647.193 200.248 652.905 200.248V185.128C645.177 184.904 638.793 186.472 633.753 189.832C628.713 193.192 624.457 198.4 620.985 205.456H620.649V187.144H607.209ZM672.394 246.616H658.114C658.338 251.992 659.458 256.584 661.474 260.392C663.49 264.088 666.178 267.112 669.538 269.464C672.898 271.704 676.762 273.328 681.13 274.336C685.498 275.344 690.09 275.848 694.906 275.848C699.274 275.848 703.642 275.4 708.01 274.504C712.49 273.72 716.466 272.264 719.938 270.136C723.522 268.008 726.378 265.208 728.506 261.736C730.746 258.264 731.866 253.896 731.866 248.632C731.866 244.488 731.026 241.016 729.346 238.216C727.778 235.416 725.65 233.12 722.962 231.328C720.386 229.424 717.362 227.912 713.89 226.792C710.53 225.672 707.058 224.72 703.474 223.936C700.114 223.152 696.754 222.424 693.394 221.752C690.034 220.968 687.01 220.072 684.322 219.064C681.634 217.944 679.394 216.6 677.602 215.032C675.922 213.352 675.082 211.28 675.082 208.816C675.082 206.576 675.642 204.784 676.762 203.44C677.882 201.984 679.338 200.864 681.13 200.08C682.922 199.184 684.882 198.568 687.01 198.232C689.25 197.896 691.434 197.728 693.562 197.728C695.914 197.728 698.21 198.008 700.45 198.568C702.802 199.016 704.93 199.8 706.834 200.92C708.738 202.04 710.306 203.552 711.538 205.456C712.77 207.248 713.498 209.544 713.722 212.344H728.002C727.666 207.08 726.546 202.712 724.642 199.24C722.738 195.656 720.162 192.856 716.914 190.84C713.778 188.712 710.138 187.256 705.994 186.472C701.85 185.576 697.314 185.128 692.386 185.128C688.578 185.128 684.714 185.632 680.794 186.64C676.986 187.536 673.514 188.992 670.378 191.008C667.354 192.912 664.834 195.432 662.818 198.568C660.914 201.704 659.962 205.456 659.962 209.824C659.962 215.424 661.362 219.792 664.162 222.928C666.962 226.064 670.434 228.528 674.578 230.32C678.834 232 683.426 233.344 688.354 234.352C693.282 235.248 697.818 236.312 701.962 237.544C706.218 238.664 709.746 240.176 712.546 242.08C715.346 243.984 716.746 246.784 716.746 250.48C716.746 253.168 716.074 255.408 714.73 257.2C713.386 258.88 711.65 260.168 709.522 261.064C707.506 261.96 705.266 262.576 702.802 262.912C700.338 263.248 697.986 263.416 695.746 263.416C692.834 263.416 689.978 263.136 687.178 262.576C684.49 262.016 682.026 261.12 679.786 259.888C677.658 258.544 675.922 256.808 674.578 254.68C673.234 252.44 672.506 249.752 672.394 246.616Z" fill="white"/>
</svg>
