<svg width="61" height="121" viewBox="0 0 61 121" fill="none" xmlns="http://www.w3.org/2000/svg">
<path d="M4.21122 5.57664V2.02485H6.23607C6.53482 2.02485 6.82251 2.04698 7.09913 2.09124C7.37575 2.1355 7.61917 2.22402 7.8294 2.3568C8.03963 2.47851 8.2056 2.65554 8.32732 2.88791C8.46009 3.12026 8.52648 3.42455 8.52648 3.80075C8.52648 4.17695 8.46009 4.48123 8.32732 4.71359C8.2056 4.94595 8.03963 5.12852 7.8294 5.2613C7.61917 5.38301 7.37575 5.466 7.09913 5.51025C6.82251 5.55451 6.53482 5.57664 6.23607 5.57664H4.21122ZM1.60547 0V11.8504H4.21122V7.6015H6.94975C7.69109 7.6015 8.32178 7.49638 8.84183 7.28615C9.36187 7.06486 9.78233 6.77717 10.1032 6.4231C10.4352 6.06903 10.673 5.66516 10.8169 5.21151C10.9718 4.74679 11.0492 4.27653 11.0492 3.80075C11.0492 3.3139 10.9718 2.84365 10.8169 2.38999C10.673 1.93634 10.4352 1.53247 10.1032 1.1784C9.78233 0.824326 9.36187 0.542174 8.84183 0.331944C8.32178 0.110648 7.69109 0 6.94975 0H1.60547Z" fill="white"/>
<path d="M51.9544 20.929C51.9544 20.409 52.0097 19.9055 52.1204 19.4187C52.2421 18.9318 52.4302 18.5003 52.6847 18.1241C52.9392 17.7368 53.2711 17.4325 53.6805 17.2112C54.0899 16.9789 54.5878 16.8627 55.1742 16.8627C55.7607 16.8627 56.2586 16.9789 56.668 17.2112C57.0774 17.4325 57.4093 17.7368 57.6638 18.1241C57.9183 18.5003 58.1009 18.9318 58.2115 19.4187C58.3332 19.9055 58.3941 20.409 58.3941 20.929C58.3941 21.4269 58.3332 21.9138 58.2115 22.3896C58.1009 22.8543 57.9183 23.2747 57.6638 23.6509C57.4093 24.0271 57.0774 24.3314 56.668 24.5638C56.2586 24.7851 55.7607 24.8957 55.1742 24.8957C54.5878 24.8957 54.0899 24.7851 53.6805 24.5638C53.2711 24.3314 52.9392 24.0271 52.6847 23.6509C52.4302 23.2747 52.2421 22.8543 52.1204 22.3896C52.0097 21.9138 51.9544 21.4269 51.9544 20.929ZM49.3486 20.929C49.3486 21.7921 49.4814 22.5998 49.747 23.3522C50.0125 24.0935 50.3943 24.7408 50.8922 25.2941C51.3901 25.8473 51.9986 26.2844 52.7179 26.6052C53.4481 26.915 54.2669 27.0699 55.1742 27.0699C56.0926 27.0699 56.9114 26.915 57.6306 26.6052C58.3498 26.2844 58.9584 25.8473 59.4563 25.2941C59.9542 24.7408 60.3359 24.0935 60.6015 23.3522C60.8671 22.5998 60.9998 21.7921 60.9998 20.929C60.9998 20.0438 60.8671 19.225 60.6015 18.4726C60.3359 17.7092 59.9542 17.0453 59.4563 16.481C58.9584 15.9167 58.3498 15.4741 57.6306 15.1532C56.9114 14.8323 56.0926 14.6719 55.1742 14.6719C54.2669 14.6719 53.4481 14.8323 52.7179 15.1532C51.9986 15.4741 51.3901 15.9167 50.8922 16.481C50.3943 17.0453 50.0125 17.7092 49.747 18.4726C49.4814 19.225 49.3486 20.0438 49.3486 20.929Z" fill="white"/>
<path d="M0.996094 38.2044V40.2625H10.9876V38.0717H4.4649L10.8216 30.4702V28.4121H1.49401V30.6029H7.3528L0.996094 38.2044Z" fill="white"/>
<path d="M53.7129 42.3711V54.2215H56.3186V42.3711H53.7129Z" fill="white"/>
<path d="M4.68851 58.8861V68.5457H7.29426V58.8861H10.8461V56.6953H1.13672V58.8861H4.68851Z" fill="white"/>
<path d="M52.9388 75.148V71.812H55.7935C56.391 71.812 56.8391 71.9447 57.1378 72.2103C57.4366 72.4648 57.586 72.8797 57.586 73.4551C57.586 74.0526 57.4366 74.4841 57.1378 74.7497C56.8391 75.0152 56.391 75.148 55.7935 75.148H52.9388ZM50.333 69.7871V81.6375H52.9388V77.0069H55.5445C56.1973 77.0069 56.6676 77.1507 56.9553 77.4384C57.243 77.7261 57.4311 78.1797 57.5196 78.7994C57.586 79.2751 57.6358 79.7731 57.669 80.2931C57.7021 80.8132 57.7907 81.2613 57.9345 81.6375H60.5403C60.4185 81.4715 60.3245 81.2723 60.2581 81.04C60.2028 80.7966 60.1585 80.5421 60.1253 80.2765C60.1032 80.011 60.0866 79.7509 60.0755 79.4964C60.0645 79.242 60.0534 79.0207 60.0423 78.8326C60.0202 78.5338 59.976 78.2351 59.9096 77.9363C59.8542 77.6376 59.7602 77.3665 59.6274 77.1231C59.4946 76.8686 59.3231 76.6528 59.1129 76.4758C58.9027 76.2877 58.6371 76.1494 58.3162 76.0608V76.0276C58.9801 75.7621 59.4559 75.3748 59.7436 74.8658C60.0423 74.3569 60.1917 73.7538 60.1917 73.0567C60.1917 72.6031 60.1087 72.1826 59.9428 71.7954C59.7879 71.397 59.5555 71.0485 59.2457 70.7497C58.9469 70.451 58.5818 70.2186 58.1503 70.0527C57.7298 69.8756 57.254 69.7871 56.7229 69.7871H50.333Z" fill="white"/>
<path d="M2.60575 89.9075C2.60575 89.3875 2.66108 88.884 2.77172 88.3972C2.89344 87.9103 3.08154 87.4788 3.33603 87.1026C3.59052 86.7153 3.92246 86.4111 4.33186 86.1898C4.74125 85.9574 5.23917 85.8412 5.8256 85.8412C6.41203 85.8412 6.90995 85.9574 7.31934 86.1898C7.72874 86.4111 8.06068 86.7153 8.31517 87.1026C8.56966 87.4788 8.75223 87.9103 8.86288 88.3972C8.98459 88.884 9.04545 89.3875 9.04545 89.9075C9.04545 90.4054 8.98459 90.8923 8.86288 91.3681C8.75223 91.8328 8.56966 92.2532 8.31517 92.6295C8.06068 93.0057 7.72874 93.3099 7.31934 93.5423C6.90995 93.7636 6.41203 93.8742 5.8256 93.8742C5.23917 93.8742 4.74125 93.7636 4.33186 93.5423C3.92246 93.3099 3.59052 93.0057 3.33603 92.6295C3.08154 92.2532 2.89344 91.8328 2.77172 91.3681C2.66108 90.8923 2.60575 90.4054 2.60575 89.9075ZM0 89.9075C0 90.7706 0.132777 91.5783 0.398332 92.3307C0.663886 93.072 1.04562 93.7193 1.54354 94.2726C2.04145 94.8258 2.65001 95.2629 3.36922 95.5837C4.0995 95.8936 4.91829 96.0485 5.8256 96.0485C6.74398 96.0485 7.56277 95.8936 8.28198 95.5837C9.00119 95.2629 9.60975 94.8258 10.1077 94.2726C10.6056 93.7193 10.9873 93.072 11.2529 92.3307C11.5184 91.5783 11.6512 90.7706 11.6512 89.9075C11.6512 89.0223 11.5184 88.2035 11.2529 87.4511C10.9873 86.6877 10.6056 86.0238 10.1077 85.4595C9.60975 84.8952 9.00119 84.4526 8.28198 84.1317C7.56277 83.8108 6.74398 83.6504 5.8256 83.6504C4.91829 83.6504 4.0995 83.8108 3.36922 84.1317C2.65001 84.4526 2.04145 84.8952 1.54354 85.4595C1.04562 86.0238 0.663886 86.6877 0.398332 87.4511C0.132777 88.2035 0 89.0223 0 89.9075Z" fill="white"/>
<path d="M50.1709 97.2031V109.053H52.6107V101.12H52.6439L57.5732 109.053H60.179V97.2031H57.7392V105.153H57.706L52.7601 97.2031H50.1709Z" fill="white"/>
<path d="M42.0577 20.782L42.5725 21.6393L43.9925 20.7866L42.5765 19.9272L42.0577 20.782ZM19.1279 34.5523L18.6131 33.6951L17.1856 34.5523L18.6131 35.4096L19.1279 34.5523ZM42.0577 48.3227L42.5725 49.1799L44 48.3227L42.5725 47.4654L42.0577 48.3227ZM19.1279 62.093L18.6131 61.2357L17.2006 62.084L18.6051 62.9454L19.1279 62.093ZM42.0577 76.1563L42.5603 77.0208L44.0078 76.1792L42.5805 75.3038L42.0577 76.1563ZM19.1279 89.4871L18.6253 88.6226L17.1701 89.4686L18.6091 90.342L19.1279 89.4871ZM42.0577 103.404L42.5685 104.264L44.0001 103.413L42.5765 102.549L42.0577 103.404ZM18.1588 116.781C18.0226 117.316 18.346 117.861 18.8812 117.997L27.603 120.217C28.1382 120.353 28.6826 120.03 28.8188 119.495C28.9551 118.96 28.6317 118.415 28.0964 118.279L20.3437 116.305L22.3174 108.553C22.4537 108.017 22.1303 107.473 21.5951 107.337C21.0599 107.201 20.5155 107.524 20.3793 108.059L18.1588 116.781ZM18.6091 7.7201L41.5388 21.6369L42.5765 19.9272L19.6468 6.01037L18.6091 7.7201ZM41.5428 19.9247L18.6131 33.6951L19.6428 35.4096L42.5725 21.6393L41.5428 19.9247ZM18.6131 35.4096L41.5428 49.1799L42.5725 47.4654L19.6428 33.6951L18.6131 35.4096ZM41.5428 47.4654L18.6131 61.2357L19.6428 62.9502L42.5725 49.1799L41.5428 47.4654ZM18.6051 62.9454L41.5349 77.0087L42.5805 75.3038L19.6508 61.2405L18.6051 62.9454ZM41.5551 75.2917L18.6253 88.6226L19.6305 90.3516L42.5603 77.0208L41.5551 75.2917ZM18.6091 90.342L41.5388 104.259L42.5765 102.549L19.6468 88.6322L18.6091 90.342ZM41.5469 102.544L18.6171 116.168L19.6387 117.887L42.5685 104.264L41.5469 102.544Z" fill="white"/>
</svg>
