<svg width="74" height="72" viewBox="0 0 74 72" fill="none" xmlns="http://www.w3.org/2000/svg">
<path d="M73 35.7031C73 54.7183 56.9217 70.2031 37 70.2031C17.0783 70.2031 1 54.7183 1 35.7031C1 16.6879 17.0783 1.20312 37 1.20312C56.9217 1.20312 73 16.6879 73 35.7031Z" stroke="white" stroke-width="2"/>
<path d="M34.243 49.5851V55.2031H38.695V49.5851H34.243ZM24.862 29.0211H28.201C28.1657 27.6431 28.3247 26.3711 28.678 25.2051C29.0313 24.0391 29.5613 23.0321 30.268 22.1841C30.9747 21.3008 31.8757 20.6118 32.971 20.1171C34.0663 19.6225 35.3207 19.3751 36.734 19.3751C37.7587 19.3751 38.7303 19.5518 39.649 19.9051C40.5677 20.2585 41.3627 20.7531 42.034 21.3891C42.7407 21.9898 43.2883 22.7318 43.677 23.6151C44.101 24.4985 44.313 25.4701 44.313 26.5301C44.313 27.9081 43.9773 29.1625 43.306 30.2931C42.67 31.4238 41.8573 32.4485 40.868 33.3671C39.7373 34.3918 38.7657 35.3105 37.953 36.1231C37.1757 36.9358 36.5397 37.7838 36.045 38.6671C35.5857 39.5505 35.25 40.5398 35.038 41.6351C34.826 42.7305 34.7377 44.0908 34.773 45.7161H38.112C38.1473 44.0908 38.218 42.8541 38.324 42.0061C38.43 41.1228 38.642 40.3808 38.96 39.7801C39.278 39.1795 39.755 38.5788 40.391 37.9781C41.0623 37.3421 41.9457 36.4765 43.041 35.3811C44.3837 34.1091 45.479 32.7841 46.327 31.4061C47.2103 30.0281 47.652 28.3498 47.652 26.3711C47.652 24.8165 47.3693 23.4385 46.804 22.2371C46.2387 21.0358 45.4613 20.0111 44.472 19.1631C43.4827 18.3151 42.3343 17.6791 41.027 17.2551C39.755 16.7958 38.377 16.5661 36.893 16.5661C34.985 16.5661 33.289 16.8665 31.805 17.4671C30.321 18.0678 29.049 18.9158 27.989 20.0111C26.9643 21.0711 26.187 22.3785 25.657 23.9331C25.127 25.4525 24.862 27.1485 24.862 29.0211Z" fill="white"/>
</svg>
