<svg width="74" height="71" viewBox="0 0 74 71" fill="none" xmlns="http://www.w3.org/2000/svg">
<path fill-rule="evenodd" clip-rule="evenodd" d="M37 71C57.4345 71 74 55.1061 74 35.5C74 15.8939 57.4345 0 37 0C16.5655 0 0 15.8939 0 35.5C0 55.1061 16.5655 71 37 71ZM34.243 55V49.382H38.695V55H34.243ZM28.201 28.818H24.862C24.862 26.9453 25.127 25.2493 25.657 23.73C26.187 22.1753 26.9643 20.868 27.989 19.808C29.049 18.7127 30.321 17.8647 31.805 17.264C33.289 16.6633 34.985 16.363 36.893 16.363C38.377 16.363 39.755 16.5927 41.027 17.052C42.3343 17.476 43.4827 18.112 44.472 18.96C45.4613 19.808 46.2387 20.8327 46.804 22.034C47.3693 23.2353 47.652 24.6133 47.652 26.168C47.652 28.1467 47.2103 29.825 46.327 31.203C45.479 32.581 44.3837 33.906 43.041 35.178C41.9457 36.2733 41.0623 37.139 40.391 37.775C39.755 38.3757 39.278 38.9763 38.96 39.577C38.642 40.1777 38.43 40.9197 38.324 41.803C38.218 42.651 38.1473 43.8877 38.112 45.513H34.773C34.7377 43.8877 34.826 42.5273 35.038 41.432C35.25 40.3367 35.5857 39.3473 36.045 38.464C36.5397 37.5807 37.1757 36.7327 37.953 35.92C38.7657 35.1073 39.7373 34.1887 40.868 33.164C41.8573 32.2453 42.67 31.2207 43.306 30.09C43.9773 28.9593 44.313 27.705 44.313 26.327C44.313 25.267 44.101 24.2953 43.677 23.412C43.2883 22.5287 42.7407 21.7867 42.034 21.186C41.3627 20.55 40.5677 20.0553 39.649 19.702C38.7303 19.3487 37.7587 19.172 36.734 19.172C35.3207 19.172 34.0663 19.4193 32.971 19.914C31.8757 20.4087 30.9747 21.0977 30.268 21.981C29.5613 22.829 29.0313 23.836 28.678 25.002C28.3247 26.168 28.1657 27.44 28.201 28.818Z" fill="white"/>
</svg>
